<svg width="1200" height="300" viewBox="0 0 1200 300" xmlns="http://www.w3.org/2000/svg">
  <defs>
    <pattern id="grid" width="40" height="40" patternUnits="userSpaceOnUse">
      <path d="M 40 0 L 0 0 0 40" fill="none" stroke="#16202b" stroke-width="1"/>
    </pattern>
    <linearGradient id="accent" x1="0" y1="0" x2="1" y2="0">
      <stop offset="0" stop-color="#00d4ff"/>
      <stop offset="1" stop-color="#7c3aed"/>
    </linearGradient>
    <marker id="arrow" viewBox="0 0 10 10" refX="8" refY="5" markerWidth="6" markerHeight="6" orient="auto-start-reverse">
      <path d="M 0 0 L 10 5 L 0 10 z" fill="#00d4ff"/>
    </marker>
  </defs>
  <rect width="1200" height="300" fill="#0a0e14"/>
  <rect width="1200" height="300" fill="url(#grid)"/>
  <text x="70" y="148" font-family="Segoe UI, Helvetica, Arial, sans-serif" font-size="68" font-weight="800" letter-spacing="16" fill="#e6edf3">GRIDLINE</text>
  <rect x="74" y="168" width="418" height="4" rx="2" fill="url(#accent)"/>
  <text x="74" y="205" font-family="Segoe UI, Helvetica, Arial, sans-serif" font-size="19" fill="#8b949e">A Samsung smart home, piped into a warehouse — and a warehouse that talks back.</text>
  <text x="74" y="236" font-family="Consolas, Menlo, monospace" font-size="14" fill="#586674">SmartThings API · Airflow · dbt · Postgres · Metabase · autopilot</text>
  <g font-family="Consolas, Menlo, monospace" font-size="13" fill="#9db4c8">
    <circle cx="985" cy="150" r="78" fill="none" stroke="#263445" stroke-width="1.5" stroke-dasharray="5 5"/>
    <path d="M 985 66 A 84 84 0 0 1 1069 150" fill="none" stroke="#00d4ff" stroke-width="2" marker-end="url(#arrow)"/>
    <path d="M 1069 150 A 84 84 0 0 1 985 234" fill="none" stroke="#2ea6ff" stroke-width="2" marker-end="url(#arrow)"/>
    <path d="M 985 234 A 84 84 0 0 1 901 150" fill="none" stroke="#5b7cfa" stroke-width="2" marker-end="url(#arrow)"/>
    <path d="M 901 150 A 84 84 0 0 1 985 66" fill="none" stroke="#7c3aed" stroke-width="2" marker-end="url(#arrow)"/>
    <rect x="949" y="48" width="72" height="22" rx="11" fill="#0d1520" stroke="#1f2d3d"/>
    <text x="985" y="63" text-anchor="middle">INGEST</text>
    <rect x="1043" y="139" width="64" height="22" rx="11" fill="#0d1520" stroke="#1f2d3d"/>
    <text x="1075" y="154" text-anchor="middle">MODEL</text>
    <rect x="949" y="228" width="72" height="22" rx="11" fill="#0d1520" stroke="#1f2d3d"/>
    <text x="985" y="243" text-anchor="middle">DECIDE</text>
    <rect x="860" y="139" width="78" height="22" rx="11" fill="#0d1520" stroke="#1f2d3d"/>
    <text x="899" y="154" text-anchor="middle">ACTUATE</text>
  </g>
</svg>
